<?xml version="1.0" encoding="UTF-8"?>
<!DOCTYPE svg PUBLIC "-//W3C//DTD SVG 1.1//EN" "http://www.w3.org/Graphics/SVG/1.1/DTD/svg11.dtd">
<!-- Creator: CorelDRAW 2020 (64-Bit) -->
<svg xmlns="http://www.w3.org/2000/svg" xml:space="preserve" width="110mm" height="85.6373mm" version="1.1" style="shape-rendering:geometricPrecision; text-rendering:geometricPrecision; image-rendering:optimizeQuality; fill-rule:evenodd; clip-rule:evenodd"
viewBox="0 0 3337.85 2598.59"
 xmlns:xlink="http://www.w3.org/1999/xlink"
 xmlns:xodm="http://www.corel.com/coreldraw/odm/2003">
 <defs>
  <style type="text/css">
   <![CDATA[
    .fil0 {fill:#009745;fill-rule:nonzero}
    .fil3 {fill:#1B3858;fill-rule:nonzero}
    .fil1 {fill:#81C322;fill-rule:nonzero}
    .fil2 {fill:#C0E190;fill-rule:nonzero}
   ]]>
  </style>
 </defs>
 <g id="Слой_x0020_1">
  <metadata id="CorelCorpID_0Corel-Layer"/>
  <g id="_2989770537424">
   <path class="fil0" d="M2331.87 1458.79l-27.63 -11.35 38.68 -94.39c-29.72,-10.16 -59.14,-21.51 -88.56,-34.2 -13.44,17.03 -34.2,28.08 -57.65,28.38 -41.22,0.45 -75.12,-32.56 -75.57,-73.78 -0.15,-7.17 0.9,-14.04 2.69,-20.61 -81.09,-47.49 -161.44,-106.78 -241.34,-181.15l-90.2 222.22 1044.07 423.24 112.46 -277.78c-201.76,-3.58 -392.78,-18.22 -577.52,-76.76l-39.42 96.18z"/>
   <path class="fil1" d="M2204.77 1346.49c0.45,0 1.04,-0.15 1.49,-0.15 -0.45,0 -0.9,0.15 -1.49,0.15zm11.95 -2.39c0.45,-0.15 0.9,-0.3 1.34,-0.45 -0.45,0.15 -0.9,0.3 -1.34,0.45zm-3.88 1.05c0.45,-0.15 1.04,-0.3 1.49,-0.3 -0.45,0 -1.04,0.15 -1.49,0.3zm-2.39 0.45c-0.45,0.15 -1.04,0.15 -1.49,0.3 0.45,0 0.9,-0.15 1.49,-0.3zm-9.71 1.34c0.45,0 0.9,-0.15 1.34,-0.15 -0.45,0 -0.9,0.15 -1.34,0.15zm170.55 15.53c184.59,58.54 375.6,73.18 577.22,76.76l43.61 -107.82c-220.88,-30.77 -392.93,-78.86 -543.61,-156.81l-116.64 284.2 39.43 -96.33zm-250.15 -92.44c0,1.04 0,2.24 0,3.43 0,-1.34 0,-2.39 0,-3.43zm1.05 -10.31c0,0.3 -0.15,0.6 -0.15,0.9 0,-0.3 0.15,-0.59 0.15,-0.9zm-0.45 2.84c-0.15,0.9 -0.15,1.79 -0.3,2.69 0.15,-0.9 0.15,-1.79 0.3,-2.69zm-0.6 6.27c0,-0.75 0.15,-1.49 0.15,-2.39 0,0.9 0,1.64 -0.15,2.39zm118.13 64.22c0.3,-0.15 0.45,-0.3 0.75,-0.6 -0.3,0.3 -0.45,0.45 -0.75,0.6zm3.13 -2.39c0.15,-0.15 0.45,-0.3 0.6,-0.45 -0.15,0.15 -0.3,0.3 -0.6,0.45zm3.58 -2.99c-0.15,0.15 -0.3,0.3 -0.45,0.3 0.3,-0.15 0.45,-0.3 0.45,-0.3zm-7.76 -116.64c19.27,13.29 31.96,35.39 32.26,60.48 0.15,17.77 -5.82,34.35 -16.13,47.19 29.42,12.7 58.99,24.05 88.56,34.2l-38.68 94.39 113.05 -275.69 -137.69 -57.5 -41.37 96.93zm-114.55 41.67c8.51,-31.36 37.04,-54.51 71.09,-54.96 5.53,0 10.75,0.45 15.98,1.49l53.02 -123.96 60.93 25.39c-114.25,-77.66 -219.54,-177.42 -330.8,-305.56l-201.62 498.51 90.21 -222.22c79.74,74.53 160.09,133.81 241.19,181.31zm97.07 90.06c0.3,-0.15 0.75,-0.3 1.04,-0.3 -0.3,0.15 -0.59,0.15 -1.04,0.3zm8.36 -3.58c0.15,0 0.15,0 0,0 0.15,0 0.15,0 0,0zm-3.73 1.79c0,0 0,0 0,0 0,0 0,0 0,0zm10.61 -5.67c0.3,-0.15 0.6,-0.3 0.75,-0.6 -0.15,0.3 -0.45,0.45 -0.75,0.6zm-2.69 1.64c-0.3,0.15 -0.45,0.3 -0.75,0.45 0.3,-0.15 0.45,-0.3 0.75,-0.45z"/>
   <path class="fil2" d="M3337.85 479.99l-1044.07 -423.24 -299.59 738.8c111.11,127.99 216.25,227.6 330.35,305.26l-60.93 -25.39 164.88 68.85 66.91 -163.23 -330.2 -136.5 102 -245.22c-19.56,-13.29 -32.56,-35.55 -32.86,-60.93 -0.45,-41.22 32.56,-75.12 73.78,-75.57 41.22,-0.45 75.12,32.56 75.57,73.78 0.45,41.22 -32.56,75.12 -73.78,75.57 -5.23,0 -10.3,-0.45 -15.23,-1.34l-90.5 217.45 302.57 125 102.15 -249.11 -165.62 -66.75 51.37 -131.13c-20.31,-13.14 -33.75,-35.84 -34.05,-61.83 -0.45,-41.22 32.56,-75.12 73.78,-75.57 41.22,-0.45 75.12,32.56 75.57,73.78 0.45,41.22 -32.56,75.12 -73.78,75.57 -4.63,0 -9.26,-0.3 -13.59,-1.04l-40.62 103.65 165.92 66.91 -35.39 86.17 140.53 57.05 115.59 -287.19c-22.85,-12.54 -38.53,-36.74 -38.83,-64.67 -0.45,-41.22 32.56,-75.12 73.78,-75.57 41.22,-0.45 75.12,32.56 75.57,73.78 0.45,41.22 -32.56,75.12 -73.78,75.57 -2.69,0 -5.38,-0.15 -8.07,-0.3l-127.69 317.36 -168.31 -68.4 -122.01 297.49 302.27 125 29.87 -73.03c-19.71,-13.29 -32.86,-35.69 -33.15,-61.23 -0.45,-41.22 32.56,-75.12 73.78,-75.57 41.22,-0.45 75.12,32.56 75.57,73.78 0.45,41.22 -32.56,75.12 -73.78,75.57 -5.08,0 -10.01,-0.45 -14.79,-1.34l-41.22 100.81 -329.9 -136.5 -136.2 332.14 116.64 -284.2c150.69,77.96 322.73,126.05 543.61,156.81l-155.77 385.61 501.66 -1236.87z"/>
   <path class="fil0" d="M1123.97 2367.25c-1.94,-5.08 -3.73,-9.56 -5.23,-13.44 -1.49,-3.88 -2.69,-6.87 -3.74,-9.11 -0.75,2.24 -1.94,5.38 -3.43,9.26 -1.49,3.88 -3.13,8.36 -5.08,13.44 -1.94,5.08 -4.03,10.75 -6.42,16.73 -2.39,6.13 -4.78,12.55 -7.17,19.27l44.35 0c-2.39,-6.72 -4.63,-13.14 -6.87,-19.27 -2.24,-6.12 -4.48,-11.79 -6.42,-16.87z"/>
   <path class="fil0" d="M1375.46 2126.21l0 -41.81c-1.79,-0.15 -3.73,-0.3 -5.82,-0.3 -2.09,0 -4.63,0 -7.77,0 -4.48,0 -8.81,0.3 -12.84,1.05 -4.18,0.6 -7.77,1.79 -10.9,3.29 -3.14,1.49 -5.68,3.73 -7.62,6.42 -1.94,2.84 -2.84,6.27 -2.84,10.45 0,7.92 2.84,13.44 8.36,16.43 5.68,2.99 13.89,4.48 24.94,4.48l14.49 -0z"/>
   <path class="fil0" d="M729.1 2147.86c-5.38,-2.99 -13.14,-4.63 -23.15,-4.63l-21.95 0 0 40.02c2.54,0.3 5.23,0.6 8.37,0.75 2.99,0.15 6.27,0.3 9.86,0.3 10.45,0 18.82,-1.49 25.24,-4.48 6.42,-2.99 9.71,-8.51 9.71,-16.58 0,-7.32 -2.69,-12.4 -8.07,-15.38z"/>
   <path class="fil0" d="M271.96 2088.28c-2.99,-1.64 -6.42,-2.99 -10.6,-3.58 -4.18,-0.6 -8.81,-1.04 -13.89,-1.04 -2.54,0 -5.08,0.15 -7.47,0.3 -2.39,0.15 -4.63,0.3 -6.42,0.45l0 44.8 11.05 -0c12.1,0 21.21,-1.64 27.33,-4.93 6.12,-3.29 9.26,-9.41 9.26,-18.37 0,-4.33 -0.75,-7.91 -2.39,-10.75 -1.64,-2.99 -3.88,-5.22 -6.87,-6.87z"/>
   <path class="fil0" d="M2114.27 1523.01c-576.92,250.15 -1078.57,214.91 -1478.06,43.16l0 91.7 -277.78 0 0 -242.23c-136.95,-90.8 -257.02,-197.14 -358.43,-309.89l0 1492.84 2598.59 0 0 -879.34 -484.32 -196.24zm-760.61 278.68l34.95 0 0 125.75 57.8 0 0 -125.75 34.94 0 0 125.75 26.88 0 0 70.94 -33.6 0 0 -41.52 -120.97 0 0 -155.17zm-166.52 108.87c5.23,-14.19 10.3,-27.63 15.38,-40.17 5.08,-12.55 10.01,-24.49 14.79,-35.69 4.93,-11.2 9.86,-22.25 15.23,-33.01l33.15 0c5.08,10.75 10.16,21.81 15.08,33.01 4.93,11.35 10.01,23.15 14.94,35.69 5.08,12.54 10.16,25.99 15.38,40.17 5.23,14.19 10.75,29.72 16.73,46.3l-37.48 0c-1.79,-5.38 -3.58,-10.9 -5.53,-16.58 -1.94,-5.67 -4.03,-11.35 -5.97,-17.02l-60.63 -0c-1.94,5.68 -3.88,11.35 -5.82,17.03 -1.94,5.67 -3.74,11.2 -5.53,16.58l-36.29 0c5.82,-16.58 11.35,-32.11 16.58,-46.3zm-14.79 211.47c6.12,-8.81 12.25,-17.17 18.52,-25.39 6.12,-8.07 12.24,-15.83 18.22,-23 5.97,-7.17 11.35,-13.29 16.43,-18.22l28.37 -0 0 155.32 -34.5 0 0 -101.7c-13.14,15.38 -25.54,31.66 -37.19,48.98 -11.65,17.32 -22.55,34.94 -32.56,52.57l-29.27 0 0 -155.32 34.65 0 0 91.7c5.53,-7.77 11.2,-16.13 17.32,-24.94zm-161.44 -320.34l34.65 0 0 91.7c5.38,-8.07 11.05,-16.43 17.18,-25.24 6.12,-8.81 12.24,-17.17 18.52,-25.39 6.12,-8.07 12.24,-15.83 18.22,-23 5.97,-7.17 11.35,-13.29 16.43,-18.22l28.37 -0 0 155.32 -34.5 0 0 -101.7c-13.14,15.38 -25.54,31.66 -37.19,48.98 -11.65,17.33 -22.55,34.95 -32.56,52.57l-29.27 0 0 -155.02 0.15 0zm-46.15 283.75l0 -29.87 128.59 0 0 29.87 -46.9 0 0 125.45 -34.94 0 0 -125.45 -46.75 0zm-135.45 -283.75l34.95 0 0 125.75 57.8 0 0 -125.75 34.95 0 0 125.75 26.88 0 0 70.94 -33.6 0 0 -41.52 -120.97 0 0 -155.17zm-180.26 42.56c4.18,-10.16 9.86,-18.52 16.88,-25.39 7.02,-6.87 15.23,-11.95 24.64,-15.53 9.26,-3.43 19.12,-5.08 29.42,-5.08 10.6,0 20.61,1.79 30.02,5.08 9.41,3.43 17.62,8.66 24.64,15.53 7.02,6.87 12.54,15.38 16.57,25.39 4.03,10.16 5.97,21.8 5.97,35.1 0,13.29 -1.94,24.94 -5.97,35.1 -4.03,10.16 -9.41,18.52 -16.28,25.39 -6.87,6.87 -15.08,11.95 -24.49,15.38 -9.56,3.43 -19.71,5.08 -30.62,5.08 -10.6,0 -20.61,-1.79 -30.02,-5.08 -9.41,-3.43 -17.62,-8.51 -24.64,-15.38 -7.02,-6.72 -12.55,-15.24 -16.58,-25.39 -4.03,-10.16 -5.97,-21.8 -5.97,-35.1 0.15,-13.44 2.24,-25.09 6.42,-35.1zm-145.01 0.59c4.03,-10.16 9.56,-18.67 16.58,-25.54 7.02,-7.02 15.38,-12.24 25.09,-15.83 9.71,-3.59 20.16,-5.38 31.51,-5.38 6.57,0 12.55,0.45 17.92,1.49 5.38,1.05 10.16,2.09 14.04,3.29 4.03,1.35 7.46,2.54 10.16,3.88 2.69,1.34 4.63,2.39 5.82,3.13l-10.16 28.23c-4.78,-2.54 -10.3,-4.78 -16.73,-6.42 -6.42,-1.79 -13.59,-2.69 -21.66,-2.69 -5.38,0 -10.6,0.9 -15.83,2.69 -5.23,1.79 -9.71,4.63 -13.59,8.66 -4.03,4.03 -7.17,9.11 -9.56,15.38 -2.39,6.27 -3.58,13.89 -3.58,22.85 0,7.17 0.75,13.89 2.39,20.01 1.49,6.27 4.03,11.5 7.62,15.98 3.43,4.48 8.07,8.07 13.74,10.6 5.68,2.69 12.55,3.88 20.61,3.88 5.08,0 9.71,-0.3 13.59,-0.9 4.03,-0.6 7.62,-1.34 10.75,-2.09 3.14,-0.75 5.83,-1.79 8.21,-2.84 2.39,-1.05 4.48,-1.94 6.57,-2.99l9.71 28.08c-4.93,2.99 -11.95,5.68 -20.91,8.07 -8.96,2.39 -19.41,3.58 -31.21,3.58 -25.24,0 -44.51,-7.02 -57.65,-21.06 -13.29,-14.04 -19.86,-33.9 -19.86,-59.74 0.3,-12.84 2.39,-24.19 6.42,-34.35zm3.29 329.3c2.09,0.9 4.63,1.94 7.77,2.99 2.99,1.2 6.42,2.24 10.16,3.29 3.73,1.04 7.62,1.94 11.65,2.69 4.03,0.75 8.07,1.2 12.1,1.2 9.86,0 17.77,-1.35 23.89,-4.33 6.13,-2.84 9.11,-7.77 9.11,-14.78 0,-4.33 -1.05,-7.77 -2.99,-10.6 -1.94,-2.69 -4.63,-4.78 -7.92,-6.12 -3.29,-1.35 -7.32,-2.39 -11.95,-2.84 -4.63,-0.45 -9.56,-0.75 -14.94,-0.75l-21.06 0 0 -28.67 23.6 0c4.03,0 7.77,-0.3 11.35,-0.9 3.43,-0.6 6.57,-1.64 9.11,-3.13 2.54,-1.49 4.63,-3.43 6.12,-5.82 1.49,-2.39 2.24,-5.38 2.24,-8.96 0,-5.08 -2.09,-8.81 -5.97,-11.5 -4.03,-2.54 -9.71,-3.74 -17.03,-3.74 -8.21,0 -15.38,0.9 -21.5,2.84 -6.12,1.94 -11.95,4.33 -17.47,7.47l-11.2 -27.63c5.97,-3.73 13.14,-6.72 21.66,-9.11 8.36,-2.24 18.07,-3.43 28.82,-3.43 8.36,0 16.13,0.9 23.3,2.84 7.17,1.94 13.29,4.63 18.52,8.21 5.23,3.74 9.26,8.37 12.24,13.89 2.84,5.68 4.33,12.1 4.33,19.57 0,5.67 -1.49,11.35 -4.63,16.88 -3.13,5.67 -7.77,10.3 -14.04,14.19 3.43,1.79 6.72,3.88 9.71,6.27 2.99,2.39 5.67,5.23 8.07,8.21 2.24,3.13 4.18,6.72 5.53,10.6 1.34,4.03 2.09,8.36 2.09,13.29 0,16.58 -5.82,28.68 -17.62,36.14 -11.8,7.62 -28.08,11.35 -48.98,11.35 -5.23,0 -10.45,-0.3 -15.53,-1.19 -5.08,-0.75 -10.16,-1.64 -14.78,-2.84 -4.63,-1.19 -9.11,-2.39 -13.29,-3.88 -4.18,-1.49 -7.77,-2.99 -10.9,-4.63l10.45 -27.03zm-148.45 -329.3c4.03,-10.16 9.56,-18.67 16.58,-25.54 7.02,-7.02 15.38,-12.24 25.09,-15.83 9.71,-3.59 20.16,-5.38 31.51,-5.38 6.57,0 12.54,0.45 17.92,1.49 5.38,1.05 10.16,2.09 14.04,3.29 4.03,1.35 7.47,2.54 10.16,3.88 2.69,1.34 4.63,2.39 5.83,3.13l-10.16 28.23c-4.78,-2.54 -10.3,-4.78 -16.73,-6.42 -6.42,-1.79 -13.59,-2.69 -21.66,-2.69 -5.38,0 -10.6,0.9 -15.83,2.69 -5.23,1.79 -9.71,4.63 -13.59,8.66 -4.03,4.03 -7.17,9.11 -9.56,15.38 -2.39,6.27 -3.58,13.89 -3.58,22.85 0,7.17 0.75,13.89 2.39,20.01 1.49,6.27 4.03,11.5 7.62,15.98 3.43,4.48 8.07,8.07 13.74,10.6 5.67,2.69 12.54,3.88 20.61,3.88 5.08,0 9.71,-0.3 13.59,-0.9 4.03,-0.6 7.62,-1.34 10.75,-2.09 3.13,-0.75 5.82,-1.79 8.21,-2.84 2.39,-1.05 4.48,-1.94 6.57,-2.99l9.71 28.08c-4.93,2.99 -11.95,5.68 -20.91,8.07 -8.96,2.39 -19.41,3.58 -31.21,3.58 -25.24,0 -44.5,-7.02 -57.64,-21.06 -13.29,-14.04 -19.86,-33.9 -19.86,-59.74 0.3,-12.84 2.39,-24.19 6.42,-34.35zm-159.35 65.71c5.23,-14.19 10.3,-27.63 15.38,-40.17 5.08,-12.55 10,-24.49 14.78,-35.69 4.93,-11.2 9.86,-22.25 15.24,-33.01l33.15 0c5.08,10.75 10.16,21.81 15.08,33.01 4.93,11.35 10.01,23.15 14.94,35.69 5.08,12.54 10.16,25.99 15.38,40.17 5.23,14.19 10.75,29.72 16.73,46.3l-37.48 0c-1.79,-5.38 -3.58,-10.9 -5.53,-16.58 -1.94,-5.67 -4.03,-11.35 -5.97,-17.02l-60.63 -0c-1.94,5.68 -3.88,11.35 -5.82,17.03 -1.94,5.67 -3.74,11.2 -5.53,16.58l-36.29 0c5.82,-16.58 11.35,-32.11 16.58,-46.3zm117.68 195.49c0,18.67 -6.27,32.11 -18.82,40.47 -12.55,8.36 -30.47,12.4 -53.76,12.4l-11.05 0 0 51.97 -34.95 -0 0 -153.08c7.62,-1.49 15.68,-2.54 24.19,-3.13 8.51,-0.6 15.98,-0.9 22.4,-0.9 23.15,0 40.92,4.03 53.31,12.25 12.4,8.21 18.67,21.51 18.67,40.03zm14.94 358.72l-34.5 0 0 -101.7c-13.14,15.38 -25.54,31.66 -37.19,48.98 -11.65,17.33 -22.55,34.95 -32.56,52.57l-29.27 0 0 -155.32 34.65 0 0 91.7c5.38,-8.07 11.05,-16.43 17.17,-25.24 6.12,-8.81 12.24,-17.17 18.52,-25.39 6.12,-8.07 12.25,-15.83 18.22,-23 5.97,-7.17 11.35,-13.29 16.43,-18.22l28.37 -0 0 155.62 0.15 0zm-11.35 -253.89c5.82,-16.73 11.35,-32.11 16.57,-46.3 5.23,-14.19 10.3,-27.63 15.38,-40.18 5.08,-12.54 10.01,-24.49 14.79,-35.69 4.93,-11.2 9.86,-22.25 15.23,-33.01l33.16 0c5.08,10.75 10.16,21.8 15.08,33.01 4.93,11.35 10.01,23.15 14.94,35.69 5.08,12.55 10.16,25.99 15.38,40.18 5.23,14.19 10.75,29.72 16.73,46.3l-37.49 0c-1.79,-5.38 -3.58,-10.9 -5.53,-16.58 -1.94,-5.67 -4.03,-11.35 -5.97,-17.02l-60.64 -0c-1.94,5.67 -3.88,11.35 -5.82,17.02 -1.94,5.68 -3.74,11.2 -5.53,16.58l-36.29 0zm166.97 128.44l-46.89 0 0 125.45 -34.94 0 0 -125.45 -46.9 0 0 -29.87 128.59 0 0 29.87 0.15 0zm67.96 73.63l-64.97 0 0 -30.17 64.97 -0 0 30.17zm179.06 9.11c-4.03,10.16 -9.41,18.52 -16.28,25.39 -6.87,6.87 -15.08,11.95 -24.49,15.38 -9.56,3.43 -19.71,5.08 -30.61,5.08 -10.6,0 -20.61,-1.79 -30.02,-5.08 -9.41,-3.43 -17.62,-8.51 -24.64,-15.38 -7.02,-6.72 -12.55,-15.23 -16.58,-25.39 -4.03,-10.16 -5.97,-21.81 -5.97,-35.1 0,-13.29 2.09,-24.94 6.27,-35.1 4.18,-10.16 9.86,-18.52 16.88,-25.39 7.02,-6.87 15.24,-11.95 24.64,-15.53 9.26,-3.43 19.12,-5.08 29.42,-5.08 10.6,0 20.61,1.79 30.02,5.08 9.41,3.43 17.62,8.66 24.64,15.53 7.02,6.87 12.55,15.38 16.58,25.39 4.03,10.16 5.97,21.8 5.97,35.1 0.15,13.29 -1.79,25.09 -5.82,35.1zm-33.01 -209.23c-8.51,0 -17.03,-0.3 -25.39,-0.75 -8.51,-0.6 -17.17,-1.79 -26.28,-3.74l0 -150.54c7.17,-1.34 14.94,-2.39 23.6,-2.99 8.51,-0.75 16.43,-1.05 23.75,-1.05 9.86,0 18.97,0.75 27.18,2.09 8.21,1.49 15.38,3.88 21.36,7.32 5.97,3.43 10.6,7.91 14.04,13.59 3.43,5.68 5.08,12.55 5.08,20.76 0,12.4 -5.97,22.25 -17.92,29.42 9.86,3.74 16.57,8.81 20.16,15.24 3.58,6.42 5.38,13.59 5.38,21.65 0,16.28 -5.97,28.52 -17.77,36.74 -12.1,8.21 -29.72,12.24 -53.17,12.24zm186.23 126.5l-46.89 0 0 125.45 -34.94 0 0 -125.45 -46.9 0 0 -29.87 128.59 0 0 29.87 0.15 0zm-21.95 -181.16c-11.65,17.33 -22.55,34.95 -32.56,52.57l-29.27 0 0 -155.32 34.65 0 0 91.7c5.38,-8.07 11.05,-16.43 17.17,-25.24 6.12,-8.81 12.25,-17.17 18.52,-25.39 6.13,-8.07 12.25,-15.83 18.22,-23 5.97,-7.17 11.35,-13.29 16.43,-18.22l28.37 0 0 155.32 -34.5 0 0 -101.7c-12.99,15.68 -25.39,31.96 -37.04,49.28zm148.6 242.24c-12.55,8.21 -30.47,12.4 -53.76,12.4l-11.05 0 0 51.97 -34.94 0 0 -153.08c7.62,-1.49 15.68,-2.54 24.19,-3.13 8.51,-0.6 15.98,-0.9 22.4,-0.9 23.15,0 40.92,4.03 53.32,12.25 12.4,8.21 18.67,21.5 18.67,40.02 0,18.67 -6.27,32.11 -18.82,40.47zm142.33 64.37c-1.79,-5.38 -3.58,-10.9 -5.53,-16.58 -1.94,-5.67 -4.03,-11.35 -5.97,-17.02l-60.64 -0c-1.94,5.67 -3.88,11.35 -5.82,17.02 -1.94,5.68 -3.74,11.2 -5.53,16.58l-36.29 0c5.83,-16.73 11.35,-32.11 16.58,-46.3 5.23,-14.19 10.3,-27.63 15.38,-40.17 5.08,-12.54 10.01,-24.49 14.79,-35.69 4.93,-11.2 9.86,-22.25 15.23,-33.01l33.15 -0c5.08,10.75 10.16,21.81 15.08,33.01 4.93,11.35 10.01,23.15 14.94,35.69 5.08,12.55 10.16,25.99 15.38,40.18 5.23,14.19 10.75,29.72 16.73,46.3l-37.49 0zm158.75 -0.45c-8.96,2.39 -19.41,3.58 -31.21,3.58 -25.24,0 -44.5,-7.02 -57.65,-21.06 -13.29,-14.04 -19.86,-33.9 -19.86,-59.74 0,-12.84 2.09,-24.34 5.97,-34.35 4.03,-10.16 9.56,-18.67 16.58,-25.54 7.02,-7.02 15.38,-12.25 25.09,-15.83 9.71,-3.58 20.16,-5.38 31.51,-5.38 6.57,0 12.55,0.45 17.92,1.49 5.38,1.04 10.16,2.09 14.04,3.29 4.03,1.34 7.47,2.54 10.16,3.88 2.69,1.35 4.63,2.39 5.82,3.14l-10.16 28.23c-4.78,-2.54 -10.3,-4.78 -16.73,-6.42 -6.42,-1.79 -13.59,-2.69 -21.66,-2.69 -5.38,0 -10.6,0.9 -15.83,2.69 -5.23,1.79 -9.71,4.63 -13.59,8.66 -4.03,4.03 -7.17,9.11 -9.56,15.38 -2.39,6.27 -3.59,13.89 -3.59,22.85 0,7.17 0.75,13.89 2.39,20.01 1.49,6.27 4.03,11.5 7.62,15.98 3.43,4.48 8.07,8.07 13.74,10.6 5.68,2.69 12.55,3.88 20.61,3.88 5.08,0 9.71,-0.3 13.59,-0.9 4.03,-0.6 7.62,-1.35 10.75,-2.09 3.13,-0.75 5.82,-1.79 8.21,-2.84 2.39,-1.04 4.48,-1.94 6.57,-2.99l9.71 28.08c-4.63,2.99 -11.5,5.68 -20.46,8.07zm20.61 -284.5c-5.97,10.16 -11.5,20.46 -16.57,31.06l-36.89 0c2.69,-6.12 5.53,-12.1 8.66,-18.22 2.99,-5.97 6.12,-11.65 9.26,-17.03 3.14,-5.38 6.12,-10.3 9.11,-14.94 2.99,-4.48 5.68,-8.51 8.37,-11.95 -3.29,-1.49 -6.57,-3.43 -9.71,-5.97 -3.29,-2.39 -6.12,-5.38 -8.66,-8.81 -2.54,-3.43 -4.63,-7.46 -6.12,-12.24 -1.49,-4.78 -2.39,-10.16 -2.39,-16.28 0,-8.51 1.64,-15.98 5.08,-22.4 3.29,-6.42 8.07,-11.79 14.34,-16.13 6.12,-4.33 13.74,-7.62 22.7,-9.71 8.81,-2.09 18.82,-3.29 29.87,-3.29 6.27,0 13.59,0.45 22.1,1.2 8.36,0.75 16.73,1.94 24.94,3.74l0 151.88 -34.95 0 0 -55.7 -10.75 0c-1.94,0 -3.74,0 -5.68,0 -1.94,0 -4.03,-0.15 -6.57,-0.45 -4.78,6.72 -10.15,15.23 -16.13,25.24zm174.58 284.95l-34.94 0 0 -125.75 -38.08 -0c-0.45,10 -1.04,20.01 -1.64,30.17 -0.74,10.16 -1.94,19.86 -3.58,29.27 -1.79,9.41 -4.18,18.22 -7.32,26.44 -3.29,8.21 -7.62,15.53 -13.29,21.66 -5.68,6.27 -12.55,11.35 -20.91,15.08 -8.36,3.74 -18.67,5.83 -30.77,6.27l-3.74 -30.47c10.75,-1.2 19.12,-3.88 24.79,-8.21 5.82,-4.18 10.16,-10.75 13.29,-19.56 3.74,-10.91 6.42,-24.94 7.92,-42.27 1.49,-17.17 2.39,-36.59 2.39,-57.95l106.04 0 0 155.32 -0.15 0zm24.35 -663.09l34.65 0 0 91.7c5.38,-8.07 11.05,-16.43 17.17,-25.24 6.12,-8.81 12.25,-17.17 18.52,-25.39 6.12,-8.07 12.24,-15.83 18.22,-23 5.97,-7.17 11.5,-13.29 16.28,-18.22l28.53 -0 0 155.32 -34.5 0 0 -101.7c-13.14,15.38 -25.54,31.66 -37.19,48.98 -11.65,17.33 -22.55,34.95 -32.56,52.57l-29.12 0 0 -155.02zm148.75 663.09l-34.5 0 0 -101.7c-13.14,15.38 -25.54,31.66 -37.19,48.98 -11.65,17.33 -22.55,34.95 -32.56,52.57l-29.27 0 0 -155.32 34.65 0 0 91.7c5.38,-8.07 11.05,-16.43 17.17,-25.24 6.12,-8.81 12.24,-17.17 18.52,-25.39 6.12,-8.07 12.24,-15.83 18.22,-23 5.97,-7.17 11.35,-13.29 16.28,-18.22l28.52 -0 0 155.62 0.15 0zm95.58 -563.63c-1.94,0 -3.73,0 -5.67,0 -1.94,0 -4.03,-0.15 -6.42,-0.45 -4.93,6.72 -10.45,15.08 -16.28,25.24 -5.97,10.16 -11.5,20.46 -16.58,31.06l-36.89 0c2.69,-6.12 5.53,-12.1 8.66,-18.22 2.99,-5.97 6.13,-11.65 9.26,-17.03 3.13,-5.38 6.12,-10.3 9.26,-14.94 2.99,-4.48 5.67,-8.51 8.21,-11.95 -3.29,-1.49 -6.57,-3.43 -9.71,-5.97 -3.29,-2.39 -6.12,-5.38 -8.66,-8.81 -2.54,-3.43 -4.63,-7.47 -6.13,-12.25 -1.64,-4.78 -2.39,-10.16 -2.39,-16.28 0,-8.51 1.64,-15.98 5.08,-22.4 3.29,-6.42 8.07,-11.8 14.34,-16.13 6.12,-4.33 13.74,-7.62 22.7,-9.71 8.81,-2.09 18.82,-3.29 29.87,-3.29 6.27,0 13.59,0.45 22.11,1.2 8.36,0.75 16.73,1.94 24.94,3.74l0 151.88 -34.94 0 0 -55.71 -10.75 0zm111.71 499.26c-12.54,8.21 -30.47,12.4 -53.76,12.4l-10.9 0 0 51.97 -34.95 0 0 -153.08c7.62,-1.49 15.68,-2.54 24.19,-3.13 8.51,-0.6 15.98,-0.9 22.4,-0.9 23.15,0 40.92,4.03 53.31,12.25 12.4,8.21 18.52,21.5 18.52,40.02 0,18.67 -6.27,32.11 -18.82,40.47zm152.18 63.92c-8.96,2.39 -19.42,3.58 -31.07,3.58 -25.24,0 -44.5,-7.02 -57.64,-21.06 -13.29,-14.04 -19.86,-33.9 -19.86,-59.74 0,-12.84 1.94,-24.34 5.97,-34.35 4.03,-10.01 9.56,-18.67 16.57,-25.54 7.02,-7.02 15.38,-12.25 25.09,-15.83 9.71,-3.58 20.16,-5.38 31.51,-5.38 6.57,0 12.54,0.45 17.92,1.49 5.38,1.04 10.16,2.09 14.19,3.29 4.03,1.34 7.47,2.54 10.16,3.88 2.69,1.34 4.63,2.39 5.83,3.14l-10.16 28.23c-4.78,-2.54 -10.3,-4.78 -16.73,-6.42 -6.42,-1.79 -13.59,-2.69 -21.66,-2.69 -5.38,0 -10.6,0.9 -15.83,2.69 -5.08,1.79 -9.71,4.63 -13.59,8.66 -4.03,4.03 -7.17,9.11 -9.56,15.38 -2.39,6.27 -3.58,13.89 -3.58,22.85 0,7.17 0.75,13.89 2.39,20.01 1.49,6.27 4.03,11.5 7.62,15.98 3.43,4.48 8.07,8.07 13.74,10.6 5.67,2.69 12.54,3.88 20.61,3.88 5.08,0 9.71,-0.3 13.74,-0.9 4.03,-0.6 7.62,-1.35 10.75,-2.09 3.14,-0.75 5.82,-1.79 8.36,-2.84 2.39,-1.04 4.48,-1.94 6.42,-2.99l9.71 28.08c-4.93,2.99 -11.95,5.68 -20.91,8.07zm83.48 -16.13c5.52,15.98 12.84,30.32 21.8,43.01l-23.3 14.94c-12.7,-14.79 -22.55,-31.36 -29.27,-49.73 -6.87,-18.37 -10.3,-37.94 -10.3,-58.69 0,-20.76 3.43,-40.32 10.3,-58.69 6.87,-18.37 16.58,-34.95 29.27,-49.73l23.3 14.94c-8.96,12.69 -16.28,27.03 -21.8,43.01 -5.53,15.98 -8.21,32.86 -8.21,50.48 -0.15,17.62 2.69,34.5 8.21,50.48zm163.53 16.58l-34.95 0 0 -55.85 -10.75 0c-1.94,0 -3.74,0 -5.68,0 -1.94,0 -4.03,-0.15 -6.42,-0.45 -4.93,6.72 -10.46,15.08 -16.28,25.24 -5.97,10.16 -11.5,20.46 -16.58,31.06l-36.89 0c2.69,-6.12 5.53,-12.1 8.66,-18.22 2.99,-5.97 6.12,-11.65 9.26,-17.03 3.14,-5.38 6.12,-10.3 9.26,-14.94 2.99,-4.48 5.67,-8.51 8.21,-11.95 -3.28,-1.49 -6.57,-3.43 -9.71,-5.97 -3.29,-2.39 -6.12,-5.38 -8.66,-8.81 -2.54,-3.43 -4.63,-7.47 -6.13,-12.24 -1.64,-4.78 -2.39,-10.16 -2.39,-16.28 0,-8.51 1.64,-15.98 5.08,-22.4 3.29,-6.42 8.07,-11.8 14.34,-16.13 6.12,-4.33 13.74,-7.62 22.7,-9.71 8.81,-2.09 18.82,-3.29 29.87,-3.29 6.27,0 13.59,0.45 22.11,1.2 8.36,0.75 16.73,1.94 24.94,3.74l0 152.03zm76.01 -8.36c-6.87,18.37 -16.73,34.94 -29.42,49.73l-23.3 -14.94c8.96,-12.7 16.13,-27.03 21.66,-43.01 5.53,-15.98 8.21,-32.7 8.21,-50.48 0,-17.62 -2.84,-34.35 -8.21,-50.48 -5.53,-15.98 -12.69,-30.32 -21.66,-43.01l23.3 -14.94c12.7,14.78 22.4,31.36 29.42,49.73 6.87,18.37 10.3,37.93 10.3,58.69 0,20.76 -3.44,40.32 -10.3,58.69z"/>
   <path class="fil0" d="M413.98 2130.24c-2.24,-6.12 -4.33,-11.8 -6.27,-16.88 -1.94,-5.08 -3.74,-9.56 -5.23,-13.44 -1.49,-3.88 -2.69,-6.87 -3.73,-9.11 -0.75,2.24 -1.94,5.38 -3.43,9.26 -1.49,3.88 -3.13,8.36 -5.08,13.44 -1.94,5.08 -4.03,10.75 -6.42,16.73 -2.39,6.12 -4.78,12.55 -7.17,19.27l44.36 0c-2.54,-6.72 -4.93,-13.14 -7.02,-19.27z"/>
   <path class="fil0" d="M1263.6 1876.36c-2.24,-6.12 -4.33,-11.8 -6.27,-16.87 -1.94,-5.08 -3.74,-9.56 -5.23,-13.44 -1.49,-3.88 -2.69,-6.87 -3.73,-9.11 -0.75,2.24 -1.94,5.38 -3.43,9.26 -1.49,3.88 -3.14,8.36 -5.08,13.44 -1.94,5.08 -4.03,10.75 -6.42,16.73 -2.39,6.12 -4.78,12.55 -7.17,19.27l44.35 0c-2.39,-6.72 -4.78,-13.15 -7.02,-19.27z"/>
   <path class="fil0" d="M2241.96 2337.98c-4.48,0 -8.81,0.3 -12.84,1.04 -4.18,0.6 -7.77,1.79 -10.9,3.29 -3.13,1.49 -5.67,3.73 -7.62,6.42 -1.94,2.84 -2.99,6.27 -2.99,10.45 0,7.92 2.84,13.44 8.37,16.43 5.67,2.99 13.89,4.48 24.94,4.48l14.64 -0 0 -41.81c-1.79,-0.15 -3.73,-0.3 -5.82,-0.3 -2.09,0 -4.63,0 -7.77,0z"/>
   <path class="fil0" d="M276.14 1876.36c-2.24,-6.12 -4.33,-11.8 -6.27,-16.87 -1.94,-5.08 -3.73,-9.56 -5.23,-13.44 -1.49,-3.88 -2.69,-6.87 -3.74,-9.11 -0.75,2.24 -1.94,5.38 -3.43,9.26 -1.49,3.88 -3.13,8.36 -5.08,13.44 -1.94,5.08 -4.03,10.75 -6.42,16.73 -2.39,6.12 -4.78,12.55 -7.17,19.27l44.35 0c-2.54,-6.72 -4.93,-13.15 -7.02,-19.27z"/>
   <path class="fil0" d="M1790.34 1830.36c-1.79,-0.15 -3.74,-0.3 -5.82,-0.3 -2.09,0 -4.63,0 -7.77,0 -4.48,0 -8.81,0.3 -12.84,1.04 -4.18,0.6 -7.77,1.79 -10.9,3.29 -3.13,1.49 -5.67,3.74 -7.62,6.42 -1.94,2.84 -2.99,6.27 -2.99,10.46 0,7.91 2.84,13.44 8.36,16.43 5.68,2.99 13.89,4.48 24.94,4.48l14.64 0 0 -41.82z"/>
   <path class="fil0" d="M693.85 2350.38c-3.58,-4.33 -7.77,-7.77 -12.99,-10.16 -5.23,-2.39 -10.9,-3.58 -17.33,-3.58 -6.57,0 -12.4,1.2 -17.47,3.74 -5.08,2.54 -9.41,5.97 -12.84,10.3 -3.58,4.48 -6.27,9.71 -8.07,15.83 -1.94,6.27 -2.84,12.99 -2.84,20.46 0,7.62 0.9,14.49 2.84,20.61 1.79,6.13 4.48,11.35 8.07,15.83 3.43,4.48 7.77,7.77 12.84,10.16 5.08,2.39 10.9,3.58 17.47,3.58 6.42,0 12.25,-1.19 17.33,-3.58 5.23,-2.39 9.41,-5.82 12.99,-10.16 3.43,-4.33 6.12,-9.71 8.07,-15.83 1.79,-6.12 2.84,-12.99 2.84,-20.61 0,-7.62 -0.9,-14.49 -2.84,-20.76 -1.94,-6.12 -4.63,-11.35 -8.07,-15.83z"/>
   <path class="fil0" d="M689.67 1915.63c3.43,4.48 7.77,7.77 12.84,10.16 5.08,2.39 10.9,3.58 17.47,3.58 6.42,0 12.25,-1.19 17.33,-3.58 5.23,-2.39 9.41,-5.82 12.99,-10.16 3.43,-4.33 6.12,-9.71 8.07,-15.83 1.79,-6.12 2.84,-12.99 2.84,-20.61 0,-7.62 -0.9,-14.49 -2.84,-20.76 -1.94,-6.12 -4.63,-11.5 -8.07,-15.98 -3.58,-4.33 -7.77,-7.77 -12.99,-10.16 -5.23,-2.39 -10.91,-3.58 -17.33,-3.58 -6.57,0 -12.4,1.19 -17.47,3.73 -5.08,2.54 -9.41,5.97 -12.84,10.3 -3.58,4.48 -6.27,9.71 -8.07,15.83 -1.94,6.27 -2.84,12.99 -2.84,20.46 0,7.62 0.9,14.49 2.84,20.61 1.79,6.27 4.48,11.65 8.07,15.98z"/>
   <path class="fil0" d="M724.17 2112.47c4.63,-2.69 6.87,-7.17 6.87,-13.29 0,-6.27 -2.39,-10.6 -7.17,-13.29 -4.78,-2.54 -11.8,-3.74 -21.06,-3.74 -2.99,0 -6.27,0 -9.56,0.15 -3.43,0.15 -6.57,0.3 -9.26,0.6l0 33.75 17.03 0c10.9,-0.15 18.52,-1.49 23.15,-4.18z"/>
   <path class="fil0" d="M988.36 2342.16c-2.99,-1.64 -6.42,-2.99 -10.6,-3.58 -4.18,-0.6 -8.81,-1.04 -13.89,-1.04 -2.54,0 -5.08,0.15 -7.47,0.3 -2.39,0.15 -4.63,0.3 -6.42,0.45l0 44.8 11.05 0c12.1,0 21.21,-1.64 27.33,-4.93 6.12,-3.29 9.26,-9.41 9.26,-18.37 0,-4.33 -0.75,-7.91 -2.39,-10.75 -1.64,-2.99 -3.88,-5.23 -6.87,-6.87z"/>
   <path class="fil0" d="M1864.87 2342.16c-2.99,-1.64 -6.42,-2.99 -10.61,-3.58 -4.18,-0.6 -8.81,-1.04 -13.89,-1.04 -2.54,0 -5.08,0.15 -7.46,0.3 -2.39,0.15 -4.63,0.3 -6.42,0.45l0 44.8 10.9 0c12.1,0 21.21,-1.64 27.33,-4.93 6.12,-3.29 9.26,-9.41 9.26,-18.37 0,-4.33 -0.75,-7.91 -2.39,-10.75 -1.49,-2.99 -3.73,-5.23 -6.72,-6.87z"/>
   <path class="fil2" d="M2211.79 0l-2211.79 0 0 422.05c84.08,192.95 202.36,380.08 358.43,541.52l0 -351.26 277.78 0 0 581.7c158.9,104.24 343.5,184.74 555.56,231.18l0 -923.39 -421.15 0 0 -277.78 421.15 0 277.78 0 421.15 0 0 277.78 -421.15 0 0 962.67c143.37,9.86 297.2,5.53 461.92,-15.68l-263.45 -106.78 543.77 -1342zm-1575.59 501.8l-277.78 0 0 -277.78 277.78 0 0 277.78z"/>
   <path class="fil1" d="M358.43 963.57c-156.07,-161.44 -274.35,-348.57 -358.43,-541.52l0 683.4c101.4,112.76 221.48,219.09 358.43,309.89l0 -451.77z"/>
   <path class="fil1" d="M1931.47 1448.79c-164.73,21.21 -318.55,25.54 -461.92,15.68l0 193.25 -277.78 0 0 -232.53c-212.07,-46.44 -396.66,-126.94 -555.56,-231.18l0 372.02c399.65,171.89 901.3,206.99 1478.06,-43.16l-182.8 -74.07z"/>
   <path class="fil3" d="M636.21 224.02l0 277.78 -277.78 0 0 -277.78 277.78 0zm-277.78 388.29l0 1045.41 277.78 0 0 -1045.41 -277.78 0zm1532.28 -388.29l-421.15 0 -277.78 0 -421.15 0 0 277.78 421.15 0 0 1155.92 277.78 0 0 -1155.92 421.15 0 0 -277.78z"/>
  </g>
 </g>
</svg>
