<?xml version="1.0" encoding="UTF-8"?>
<!DOCTYPE svg PUBLIC "-//W3C//DTD SVG 1.1//EN" "http://www.w3.org/Graphics/SVG/1.1/DTD/svg11.dtd">
<!-- Creator: CorelDRAW 2020 (64-Bit) -->
<svg xmlns="http://www.w3.org/2000/svg" xml:space="preserve" width="416.905mm" height="72.548mm" version="1.1" style="shape-rendering:geometricPrecision; text-rendering:geometricPrecision; image-rendering:optimizeQuality; fill-rule:evenodd; clip-rule:evenodd"
viewBox="0 0 30008.39 5221.93"
 xmlns:xlink="http://www.w3.org/1999/xlink"
 xmlns:xodm="http://www.corel.com/coreldraw/odm/2003">
 <defs>
  <style type="text/css">
   <![CDATA[
    .fil0 {fill:#004479}
    .fil23 {fill:#008BD2}
    .fil24 {fill:#009640}
    .fil20 {fill:#C51315}
    .fil22 {fill:#DADADA}
    .fil21 {fill:#E30613}
    .fil6 {fill:url(#id0)}
    .fil13 {fill:url(#id1)}
    .fil2 {fill:url(#id2)}
    .fil15 {fill:url(#id3)}
    .fil18 {fill:url(#id4)}
    .fil7 {fill:url(#id5)}
    .fil5 {fill:url(#id6)}
    .fil9 {fill:url(#id7)}
    .fil19 {fill:url(#id8)}
    .fil14 {fill:url(#id9)}
    .fil11 {fill:url(#id10)}
    .fil16 {fill:url(#id11)}
    .fil3 {fill:url(#id12)}
    .fil4 {fill:url(#id13)}
    .fil12 {fill:url(#id14)}
    .fil8 {fill:url(#id15)}
    .fil1 {fill:url(#id16)}
    .fil10 {fill:url(#id17)}
    .fil17 {fill:url(#id18)}
   ]]>
  </style>
  <linearGradient id="id0" gradientUnits="userSpaceOnUse" x1="2610.96" y1="5221.92" x2="2610.96" y2="5221.92">
   <stop offset="0" style="stop-opacity:1; stop-color:#A1DAF8"/>
   <stop offset="1" style="stop-opacity:1; stop-color:#008BD2"/>
  </linearGradient>
  <linearGradient id="id1" gradientUnits="userSpaceOnUse" xlink:href="#id0" x1="776.23" y1="4022.28" x2="1905.29" y2="4939.65">
  </linearGradient>
  <linearGradient id="id2" gradientUnits="userSpaceOnUse" xlink:href="#id0" x1="423.39" y1="1340.77" x2="1834.73" y2="2469.83">
  </linearGradient>
  <linearGradient id="id3" gradientUnits="userSpaceOnUse" xlink:href="#id0" x1="564.53" y1="0" x2="2117" y2="1270.19">
  </linearGradient>
  <linearGradient id="id4" gradientUnits="userSpaceOnUse" xlink:href="#id0" x1="-141.14" y1="1940.58" x2="1481.89" y2="3246.06">
  </linearGradient>
  <linearGradient id="id5" gradientUnits="userSpaceOnUse" xlink:href="#id0" x1="1199.62" y1="-458.69" x2="2787.37" y2="846.8">
  </linearGradient>
  <linearGradient id="id6" gradientUnits="userSpaceOnUse" xlink:href="#id0" x1="1517.18" y1="4586.83" x2="2610.96" y2="5433.62">
  </linearGradient>
  <linearGradient id="id7" gradientUnits="userSpaceOnUse" xlink:href="#id0" x1="-529.25" y1="1552.46" x2="811.51" y2="2646.24">
  </linearGradient>
  <linearGradient id="id8" gradientUnits="userSpaceOnUse" xlink:href="#id0" x1="-141.14" y1="740.94" x2="1446.62" y2="2011.14">
  </linearGradient>
  <linearGradient id="id9" gradientUnits="userSpaceOnUse" xlink:href="#id0" x1="423.39" y1="635.09" x2="1764.16" y2="1728.88">
  </linearGradient>
  <linearGradient id="id10" gradientUnits="userSpaceOnUse" xlink:href="#id0" x1="1799.45" y1="3987" x2="3104.92" y2="5045.5">
  </linearGradient>
  <linearGradient id="id11" gradientUnits="userSpaceOnUse" xlink:href="#id0" x1="529.24" y1="1129.06" x2="3987" y2="3951.72">
  </linearGradient>
  <linearGradient id="id12" gradientUnits="userSpaceOnUse" xlink:href="#id0" x1="423.4" y1="2575.67" x2="2011.14" y2="3881.16">
  </linearGradient>
  <linearGradient id="id13" gradientUnits="userSpaceOnUse" xlink:href="#id0" x1="1270.19" y1="3493.04" x2="2575.67" y2="4551.54">
  </linearGradient>
  <linearGradient id="id14" gradientUnits="userSpaceOnUse" xlink:href="#id0" x1="458.69" y1="3493.04" x2="1834.73" y2="4622.11">
  </linearGradient>
  <linearGradient id="id15" gradientUnits="userSpaceOnUse" xlink:href="#id0" x1="-352.84" y1="2716.81" x2="740.95" y2="3634.17">
  </linearGradient>
  <linearGradient id="id16" gradientUnits="userSpaceOnUse" xlink:href="#id0" x1="1199.63" y1="635.09" x2="2681.52" y2="1834.73">
  </linearGradient>
  <linearGradient id="id17" gradientUnits="userSpaceOnUse" xlink:href="#id0" x1="1764.16" y1="-0.01" x2="3175.49" y2="1164.34">
  </linearGradient>
  <linearGradient id="id18" gradientUnits="userSpaceOnUse" xlink:href="#id0" x1="-176.42" y1="3175.49" x2="1411.33" y2="4445.68">
  </linearGradient>
 </defs>
 <g id="Слой_x0020_1">
  <metadata id="CorelCorpID_0Corel-Layer"/>
  <g id="_2989770560512">
   <path id="type" class="fil0" d="M6488.59 2610.96l1365.46 0 0 127.02 -617.46 0 0 1139.64 -130.55 0 0 -1139.64 -613.92 0 0 -127.02 -3.53 0zm1517.17 1266.66l0 -1266.66 1118.48 0 0 127.02 -987.93 0 0 419.87 966.76 0 0 127.02 -966.76 0 0 462.21 991.46 0 0 127.01 -1122.01 0 0 3.53zm2522.76 -1266.66l-532.78 536.31 -532.77 -536.31 -165.83 0 585.7 596.29 -670.38 670.38 176.41 0 610.4 -610.4 610.4 610.4 176.42 0 -670.38 -670.38 596.29 -596.29 -183.47 0 0 0zm402.23 1266.66l0 -1266.66 130.55 0 0 546.89 1122.01 0 0 -546.89 130.55 0 0 1266.66 -130.55 0 0 -589.23 -1122.01 0 0 589.23 -130.55 0 0 0zm2928.51 -839.74c0,-84.68 -10.58,-151.72 -31.75,-194.06 -17.64,-42.34 -52.93,-74.1 -95.26,-91.74 -45.87,-17.63 -112.91,-24.7 -197.59,-24.7l-553.94 0c-81.16,0 -144.66,10.59 -194.06,28.23 -49.39,17.64 -84.68,49.39 -105.85,95.26 -24.7,45.87 -35.28,109.38 -38.82,190.53l0 405.76c0,59.98 7.06,112.91 21.18,151.72 14.11,38.81 31.75,70.56 56.45,91.74 24.7,21.17 59.98,38.81 102.32,49.39 42.34,10.59 95.26,14.12 158.78,14.12l553.94 0c91.74,0 158.78,-7.05 204.64,-24.7 45.87,-17.64 77.62,-45.87 95.26,-88.21 17.64,-42.34 28.23,-105.85 28.23,-194.06l0 -409.29 -3.53 0zm130.55 405.75c0,91.74 -10.58,165.83 -24.7,222.29 -17.64,56.45 -42.34,98.79 -77.62,130.55 -35.28,31.76 -81.15,52.93 -137.6,63.51 -56.45,10.58 -127.02,17.63 -218.76,17.63l-553.95 0c-84.68,0 -158.77,-7.05 -218.75,-21.17 -59.99,-14.11 -109.38,-38.81 -144.66,-74.1 -35.28,-31.75 -63.51,-77.62 -81.15,-134.08 -17.64,-56.45 -24.7,-123.49 -28.23,-204.64l0 -395.17c0,-84.68 10.59,-151.72 24.7,-208.17 17.64,-56.45 42.35,-102.32 77.63,-137.6 35.28,-35.28 84.68,-63.51 144.66,-77.62 59.98,-17.64 134.08,-24.7 222.29,-24.7l553.95 0c109.37,0 194.06,14.12 257.56,38.81 63.51,24.7 112.91,70.57 148.19,137.61 31.76,67.03 49.4,158.77 49.4,278.74l0 388.11 7.05 0zm211.7 433.98l0 -1266.66 1386.62 0 0 1266.66 -130.54 0 0 -1136.12 -1122.01 0 0 1136.12 -134.08 0 0 0zm1640.67 0l-144.66 0 656.27 -1266.66 201.12 0 656.27 1266.66 -151.72 0 -162.31 -317.54 -889.13 0 -165.83 317.54 0 0zm232.87 -444.56l751.53 0 -374 -730.36 -377.54 730.36 0 0zm1263.14 444.56l0 -1266.66 853.85 0c105.85,0 190.53,14.12 257.57,38.81 63.51,24.7 112.91,67.04 144.66,123.49 31.75,56.45 45.87,134.08 45.87,229.34 0,95.26 -14.12,165.83 -45.87,215.22 -28.23,49.4 -74.1,84.68 -137.61,105.85 -63.51,21.17 -148.19,28.22 -261.1,28.22l-723.3 0 0 522.19 -134.08 0 0 3.53zm134.08 -652.73l762.11 0c70.57,0 127.02,-7.06 165.83,-17.64 38.81,-10.59 67.04,-31.76 84.68,-63.51 17.64,-31.75 24.7,-77.62 24.7,-141.13 0,-95.26 -21.17,-165.83 -59.98,-204.64 -38.81,-38.81 -105.85,-59.98 -201.12,-59.98l-776.23 0 0 486.91 0 0zm1330.18 652.73l0 -1266.66 130.55 0 0 522.19 211.7 0 860.91 -522.19 222.29 0 -945.6 578.65 938.53 688.02 -225.81 0 -846.8 -617.45 -218.75 0 0 617.45 -127.02 0 0 0zm2692.11 -1026.74l0 388.11 -624.51 0c-63.51,0 -109.38,-14.11 -137.6,-45.87 -28.23,-31.76 -42.35,-81.15 -45.87,-148.19 0,-67.04 14.12,-119.96 38.81,-148.19 24.7,-31.76 70.57,-45.87 137.61,-45.87l631.57 0 0 0zm303.43 -239.93l-959.7 0c-95.26,0 -176.41,14.12 -239.93,38.81 -67.03,24.7 -116.43,70.57 -155.24,137.6 -38.81,67.04 -56.45,155.25 -56.45,271.68 0,63.51 14.12,119.96 38.81,172.89 24.7,52.93 59.98,98.79 102.33,134.08 42.34,35.28 88.2,59.98 137.6,70.57l-370.48 441.04 395.17 0 303.44 -402.23 504.54 0 0 402.23 303.44 0 0 -1266.66 -3.53 0zm194.06 1266.66l0 -1266.66 299.91 0 0 472.79 179.94 0 553.95 -472.79 455.15 0 -748.01 592.76 776.24 673.9 -444.57 0 -585.7 -543.35 -183.47 0 0 543.35 -303.43 0 0 0zm2741.51 -1266.66l359.89 0 -589.23 952.65c-49.4,74.1 -88.21,134.08 -119.97,172.89 -31.75,38.81 -59.98,70.57 -91.74,88.21 -31.75,21.17 -63.51,35.28 -102.32,42.34 -35.28,7.05 -84.68,10.58 -148.19,10.58l-119.96 0 0 -239.92 59.98 0c116.43,0 176.41,-24.7 176.41,-77.62 0,-14.12 -7.05,-35.28 -21.17,-59.99l-582.17 -889.13 356.36 0 423.4 712.72 398.7 -712.72 0 0zm472.79 0l1365.46 0 0 250.51 -532.78 0 0 1016.16 -303.43 0 0 -1016.16 -529.25 0 0 -250.51 0 0zm3140.21 1266.66l0 -1266.66 -508.08 0 -772.7 1016.16 -42.34 0 0 -1016.16 -303.43 0 0 1266.66 518.66 0 762.12 -1012.63 42.34 0 0 1012.63 303.43 0 0 0zm1354.88 -1026.74l0 388.11 -624.52 0c-63.51,0 -109.38,-14.11 -137.6,-45.87 -28.23,-31.76 -42.34,-81.15 -45.87,-148.19 0,-67.04 14.11,-119.96 38.81,-148.19 24.7,-31.76 70.56,-45.87 137.6,-45.87l631.57 0 0 0zm303.43 -239.93l-959.7 0c-95.26,0 -176.42,14.12 -239.93,38.81 -67.04,24.7 -116.43,70.57 -155.24,137.6 -38.82,67.04 -56.45,155.25 -56.45,271.68 0,63.51 14.11,119.96 38.81,172.89 24.7,52.93 59.98,98.79 102.32,134.08 42.34,35.28 88.21,59.98 137.6,70.57l-370.47 441.04 395.17 0 303.43 -402.23 504.55 0 0 402.23 303.43 0 0 -1266.66 -3.53 0z"/>
   <path id="description" class="fil0" d="M8901.96 1344.29l0 409.29 98.79 0 0 -328.13 250.52 0 0 -81.16 -349.31 0 0 0zm508.08 261.1c0,17.64 3.53,31.76 7.06,42.35 3.53,10.58 10.58,17.63 21.17,21.17 10.58,3.53 24.7,7.05 45.87,7.05l130.55 0c21.17,0 38.81,-3.53 49.4,-7.05 10.58,-3.53 17.64,-10.59 21.17,-21.17 3.53,-10.59 7.05,-24.7 7.05,-42.35l0 -105.85c0,-21.18 -3.53,-35.28 -7.05,-45.87 -3.53,-10.58 -14.12,-17.64 -24.7,-21.17 -10.59,-3.53 -28.23,-7.05 -45.87,-7.05l-127.02 0c-21.17,0 -35.28,3.53 -45.87,7.05 -10.59,3.53 -17.64,10.59 -24.7,21.17 -3.53,10.59 -7.06,24.7 -7.06,45.87l0 105.85 0 0zm381.06 7.06c0,24.7 -3.53,49.39 -7.06,67.03 -3.53,17.64 -14.12,31.76 -24.7,42.34 -10.59,10.59 -24.7,17.64 -45.87,24.7 -17.64,3.53 -42.34,7.05 -70.56,7.05l-179.95 0c-28.22,0 -49.4,-3.53 -70.57,-7.05 -17.64,-3.53 -35.28,-14.12 -45.87,-24.7 -10.59,-10.58 -21.17,-24.7 -24.7,-42.34 -7.06,-17.64 -7.06,-38.81 -7.06,-63.51l0 -123.49c0,-28.22 3.53,-52.93 7.06,-70.57 7.05,-17.63 14.11,-31.75 24.7,-42.34 10.58,-10.58 28.22,-17.64 45.87,-24.7 17.64,-3.53 42.35,-7.05 70.57,-7.05l179.95 0c35.28,0 63.51,3.53 84.68,14.11 21.17,7.06 35.28,24.7 45.87,45.87 10.58,21.17 14.11,49.39 14.11,88.2l0 116.44 3.53 0zm388.11 141.13l-179.94 0c-38.81,0 -67.04,-3.53 -88.21,-14.12 -21.17,-10.58 -35.28,-24.7 -45.87,-45.87 -10.58,-21.17 -14.11,-49.4 -14.11,-84.68l0 -116.43c0,-38.81 7.05,-70.57 14.11,-91.74 10.59,-21.17 24.7,-35.28 49.4,-45.87 21.17,-7.05 52.93,-14.12 95.26,-14.12l158.78 0c35.28,0 63.51,3.53 88.2,10.59 21.17,7.05 38.81,21.17 52.93,42.34 14.12,21.17 17.64,49.4 17.64,84.68l-102.32 0c0,-21.17 -7.06,-35.28 -17.64,-45.87 -10.59,-10.59 -31.76,-14.12 -56.45,-14.12l-123.49 0c-24.7,0 -38.81,0 -49.39,3.53 -10.59,3.53 -17.64,10.59 -21.18,17.64 -3.53,10.59 -7.05,24.7 -7.05,45.87l0 102.32c0,21.17 3.53,35.28 7.05,45.87 3.53,10.58 14.12,17.64 24.7,21.17 10.58,3.53 28.22,7.05 45.87,7.05l123.49 0c21.17,0 35.28,0 45.87,-3.53 10.59,-3.53 17.64,-10.58 21.17,-17.64 3.53,-7.05 7.06,-21.17 7.06,-38.81l102.32 0c0,38.81 -3.53,67.04 -10.58,84.68 -7.06,21.17 -21.18,35.28 -42.35,42.34 -24.7,21.17 -56.45,24.7 -95.26,24.7l0 0zm561 -409.29l116.43 0 -190.53 306.97c-14.12,24.7 -28.22,42.34 -38.81,56.45 -10.58,14.11 -21.17,21.17 -28.22,28.22 -10.59,7.06 -21.18,10.59 -31.76,14.12 -10.59,3.53 -28.23,3.53 -45.87,3.53l-42.34 0 0 -77.62 17.64 0c38.81,0 56.45,-7.05 56.45,-24.7 0,-3.53 -3.53,-10.59 -7.05,-17.64l-187 -285.79 116.43 0 137.6 229.34 127.02 -232.87 0 0zm176.42 328.14c17.63,-17.64 31.75,-35.28 38.81,-56.45 7.05,-21.17 10.58,-45.87 10.58,-74.1l0 -194.06 56.45 0 250.52 0 98.79 0 0 328.13 45.87 0 0 179.95 -88.2 0 0 -98.8 -352.83 0 0 98.8 -88.21 0 0 -179.95 28.23 0 0 -3.53zm359.89 0l0 -246.98 -215.23 0 0 134.08c0,21.17 -3.53,42.34 -7.05,59.98 -3.53,17.64 -14.12,35.28 -24.7,52.93l246.98 0 0 0zm278.74 81.15l-112.91 0 215.22 -409.29 144.66 0 215.22 409.29 -112.91 0 -52.93 -102.32 -243.45 0 -52.92 102.32 0 0zm91.73 -179.94l162.31 0 -77.62 -151.72 -3.53 0 -81.16 151.72 0 0zm398.71 179.94l0 -409.29 278.74 0c24.7,0 49.39,3.53 67.03,7.06 17.64,3.53 31.76,14.11 42.34,24.7 10.59,10.59 21.18,24.7 24.7,42.34 7.05,17.64 7.05,38.81 7.05,67.04 0,35.28 -3.53,63.51 -14.12,84.68 -10.58,21.18 -24.7,35.28 -45.87,45.87 -21.17,10.58 -49.4,14.12 -81.15,14.12l-179.95 0 0 119.96 -98.79 0 0 3.53zm98.79 -201.12l162.31 0c17.64,0 28.22,-3.53 38.81,-7.05 10.58,-3.53 14.11,-10.58 21.17,-21.17 3.53,-10.59 7.05,-21.17 7.05,-35.28 0,-21.17 -3.53,-38.81 -14.12,-45.87 -10.58,-10.59 -24.7,-14.12 -49.39,-14.12l-162.31 0 0 123.49 -3.53 0zm698.61 201.12l-179.94 0c-38.81,0 -67.04,-3.53 -88.21,-14.12 -21.17,-10.58 -35.28,-24.7 -45.87,-45.87 -10.58,-21.17 -14.11,-49.4 -14.11,-84.68l0 -116.43c0,-38.81 7.05,-70.57 14.11,-91.74 10.59,-21.17 24.7,-35.28 49.4,-45.87 21.17,-7.05 52.93,-14.12 95.26,-14.12l158.78 0c35.28,0 63.51,3.53 88.2,10.59 21.17,7.05 38.81,21.17 52.93,42.34 14.12,21.17 17.64,49.4 17.64,84.68l-102.32 0c0,-21.17 -7.06,-35.28 -17.64,-45.87 -10.59,-10.59 -31.76,-14.12 -56.45,-14.12l-123.49 0c-24.7,0 -38.81,0 -49.4,3.53 -10.58,3.53 -17.63,10.59 -21.17,17.64 -3.53,10.59 -7.05,24.7 -7.05,45.87l0 102.32c0,21.17 3.53,35.28 7.05,45.87 3.53,10.58 14.12,17.64 24.7,21.17 10.58,3.53 28.22,7.05 45.87,7.05l123.49 0c21.17,0 35.28,0 45.87,-3.53 10.59,-3.53 17.64,-10.58 21.17,-17.64 3.53,-7.05 7.06,-21.17 7.06,-38.81l102.32 0c0,38.81 -3.53,67.04 -10.58,84.68 -7.06,21.17 -21.18,35.28 -42.35,42.34 -24.7,21.17 -52.93,24.7 -95.26,24.7l0 0zm197.59 -409.29l441.04 0 0 81.16 -172.89 0 0 328.13 -98.79 0 0 -328.13 -169.36 0 0 -81.16 0 0zm582.17 77.62l0 88.21 197.58 0c14.12,0 21.17,-3.53 31.76,-14.12 7.05,-7.05 10.59,-21.17 10.59,-35.28 0,-14.12 -3.53,-21.18 -10.59,-28.23 -7.05,-7.05 -17.64,-10.59 -31.76,-10.59l-197.58 0 0 0zm-98.8 331.66l0 -409.29 292.85 0c31.76,0 56.45,3.53 77.62,10.59 21.17,7.05 35.28,17.64 45.87,31.76 10.58,14.11 17.64,35.28 17.64,59.98 0,31.75 -3.53,52.93 -10.59,63.51 -7.05,10.59 -21.17,21.17 -38.81,28.23 24.7,7.05 38.81,17.64 49.4,31.75 10.58,14.12 17.64,35.28 17.64,63.51 0,28.22 -3.53,52.93 -14.12,70.57 -10.59,17.63 -24.7,31.75 -45.87,38.81 -21.17,7.05 -45.87,10.58 -77.62,10.58l-314.02 0 0 0zm98.8 -169.36l0 91.74 194.06 0c17.64,0 31.76,0 38.81,-3.53 7.06,-3.53 14.12,-7.06 17.64,-14.12 3.53,-7.05 3.53,-17.64 3.53,-28.22 0,-10.59 0,-21.18 -3.53,-28.23 -3.53,-7.05 -7.05,-10.58 -14.12,-14.12 -7.05,-3.53 -21.17,-3.53 -35.28,-3.53l-201.11 0 0 0 0 0zm426.92 169.36l0 -409.29 416.35 0 0 77.62 -317.55 0 0 88.21 310.49 0 0 70.57 -310.49 0 0 91.74 317.55 0 0 77.62 -416.35 0 0 3.53zm483.38 0l0 -409.29 98.8 0 0 155.25 250.51 0 0 -155.25 98.79 0 0 409.29 -98.79 0 0 -169.36 -250.51 0 0 169.36 -98.8 0 0 0zm508.08 0l0 -409.29 98.8 0 0 155.25 250.51 0 0 -155.25 98.79 0 0 409.29 -98.79 0 0 -169.36 -254.04 0 0 169.36 -95.26 0 0 0zm606.88 -148.19c0,17.64 3.53,31.76 7.05,42.35 3.53,10.58 10.59,17.63 21.17,21.17 10.59,3.53 24.7,7.05 45.87,7.05l130.55 0c21.17,0 38.81,-3.53 49.39,-7.05 10.59,-3.53 17.64,-10.59 21.17,-21.17 3.53,-10.59 7.06,-24.7 7.06,-42.35l0 -105.85c0,-21.18 -3.53,-35.28 -7.06,-45.87 -3.53,-10.58 -14.11,-17.64 -24.7,-21.17 -10.59,-3.53 -28.22,-7.05 -45.87,-7.05l-127.02 0c-21.17,0 -35.28,3.53 -45.87,7.05 -10.58,3.53 -17.64,10.59 -24.7,21.17 -3.53,10.59 -7.05,24.7 -7.05,45.87l0 105.85 0 0zm377.53 7.06c0,24.7 -3.53,49.39 -7.06,67.03 -3.53,17.64 -14.11,31.76 -24.7,42.34 -10.58,10.59 -24.7,17.64 -45.87,24.7 -17.64,3.53 -42.35,7.05 -70.57,7.05l-176.42 0c-28.22,0 -49.39,-3.53 -70.56,-7.05 -17.64,-3.53 -35.28,-14.12 -45.87,-24.7 -10.58,-10.58 -21.17,-24.7 -24.7,-42.34 -7.05,-17.64 -7.05,-38.81 -7.05,-63.51l0 -123.49c0,-28.22 3.53,-52.93 7.05,-70.57 7.05,-17.63 14.12,-31.75 24.7,-42.34 10.59,-10.58 28.23,-17.64 45.87,-24.7 17.64,-3.53 42.34,-7.05 70.56,-7.05l179.95 0c35.28,0 63.51,3.53 84.68,14.11 21.17,7.06 35.28,24.7 45.87,45.87 10.59,21.17 14.12,49.39 14.12,88.2l0 116.44 0 0zm70.57 141.13l0 -409.29 416.34 0 0 77.62 -317.55 0 0 88.21 310.49 0 0 70.57 -310.49 0 0 91.74 317.55 0 0 77.62 -416.34 0 0 3.53zm769.17 0l-112.91 0 215.22 -409.29 144.66 0 215.22 409.29 -112.91 0 -52.93 -102.32 -239.92 0 -56.45 102.32 0 0zm95.26 -179.94l162.3 0 -77.62 -151.72 -3.53 0 -81.15 151.72 0 0zm501.02 -151.72l0 88.21 197.59 0c14.12,0 21.17,-3.53 31.76,-14.12 7.05,-7.05 10.58,-21.17 10.58,-35.28 0,-14.12 -3.53,-21.18 -10.58,-28.23 -7.06,-7.05 -17.64,-10.59 -31.76,-10.59l-197.59 0 0 0zm-98.79 331.66l0 -409.29 292.85 0c31.75,0 56.45,3.53 77.62,10.59 21.17,7.05 35.28,17.64 45.87,31.76 10.59,14.11 17.64,35.28 17.64,59.98 0,31.75 -3.53,52.93 -10.58,63.51 -7.06,10.59 -21.18,21.17 -38.81,28.23 24.7,7.05 38.81,17.64 49.39,31.75 10.59,14.12 17.64,35.28 17.64,63.51 0,28.22 -3.53,52.93 -14.12,70.57 -10.58,17.63 -24.7,31.75 -45.87,38.81 -21.17,7.05 -45.87,10.58 -77.62,10.58l-314.02 0 0 0zm98.79 -169.36l0 91.74 194.06 0c17.64,0 31.75,0 38.81,-3.53 7.05,-3.53 14.11,-7.06 17.64,-14.12 3.53,-7.05 3.53,-17.64 3.53,-28.22 0,-10.59 0,-21.18 -3.53,-28.23 -3.53,-7.05 -7.06,-10.58 -14.12,-14.12 -7.05,-3.53 -21.17,-3.53 -35.28,-3.53l-201.12 0 0 0 0 0zm405.76 -239.93l441.04 0 0 81.16 -172.89 0 0 328.13 -98.79 0 0 -328.13 -169.36 0 0 -81.16 0 0zm582.17 261.1c0,17.64 3.53,31.76 7.05,42.35 3.53,10.58 10.59,17.63 21.17,21.17 10.59,3.53 24.7,7.05 45.87,7.05l130.55 0c21.17,0 38.81,-3.53 49.4,-7.05 10.58,-3.53 17.63,-10.59 21.17,-21.17 3.53,-10.59 7.05,-24.7 7.05,-42.35l0 -105.85c0,-21.18 -3.53,-35.28 -7.05,-45.87 -3.53,-10.58 -14.12,-17.64 -24.7,-21.17 -10.58,-3.53 -28.22,-7.05 -45.87,-7.05l-127.02 0c-21.17,0 -35.28,3.53 -45.87,7.05 -10.59,3.53 -17.64,10.59 -24.7,21.17 -3.53,10.59 -7.05,24.7 -7.05,45.87l0 105.85 0 0zm377.53 7.06c0,24.7 -3.53,49.39 -7.05,67.03 -3.53,17.64 -14.12,31.76 -24.7,42.34 -10.58,10.59 -24.7,17.64 -45.87,24.7 -17.64,3.53 -42.34,7.05 -70.57,7.05l-179.94 0c-28.23,0 -49.4,-3.53 -70.57,-7.05 -17.64,-3.53 -35.28,-14.12 -45.87,-24.7 -10.58,-10.58 -21.17,-24.7 -24.7,-42.34 -7.05,-17.64 -7.05,-38.81 -7.05,-63.51l0 -123.49c0,-28.22 3.53,-52.93 7.05,-70.57 7.05,-17.63 14.12,-31.75 24.7,-42.34 10.59,-10.58 28.23,-17.64 45.87,-24.7 17.64,-3.53 42.34,-7.05 70.57,-7.05l179.94 0c35.28,0 63.51,3.53 84.68,14.11 21.17,7.06 35.28,24.7 45.87,45.87 10.59,21.17 14.12,49.39 14.12,88.2l0 116.44 3.53 0zm59.98 141.13l0 -409.29 98.8 0 0 155.25 250.51 0 0 -155.25 98.79 0 0 409.29 -98.79 0 0 -169.36 -250.51 0 0 169.36 -98.8 0 0 0zm606.88 -148.19c0,17.64 3.53,31.76 7.05,42.35 3.53,10.58 10.59,17.63 21.17,21.17 10.59,3.53 24.7,7.05 45.87,7.05l130.55 0c21.17,0 38.81,-3.53 49.39,-7.05 10.59,-3.53 17.64,-10.59 21.17,-21.17 3.53,-10.59 7.06,-24.7 7.06,-42.35l0 -105.85c0,-21.18 -3.53,-35.28 -7.06,-45.87 -3.53,-10.58 -14.11,-17.64 -24.7,-21.17 -10.59,-3.53 -28.23,-7.05 -45.87,-7.05l-127.02 0c-21.17,0 -35.28,3.53 -45.87,7.05 -10.58,3.53 -17.64,10.59 -24.7,21.17 -3.53,10.59 -7.05,24.7 -7.05,45.87l0 105.85 0 0zm381.06 7.06c0,24.7 -3.53,49.39 -7.05,67.03 -3.53,17.64 -14.12,31.76 -24.7,42.34 -10.58,10.59 -24.7,17.64 -45.87,24.7 -17.64,3.53 -42.34,7.05 -70.57,7.05l-179.95 0c-28.22,0 -49.39,-3.53 -70.56,-7.05 -17.64,-3.53 -35.28,-14.12 -45.87,-24.7 -10.58,-10.58 -21.17,-24.7 -24.7,-42.34 -7.05,-17.64 -7.05,-38.81 -7.05,-63.51l0 -123.49c0,-28.22 3.53,-52.93 7.05,-70.57 7.05,-17.63 14.12,-31.75 24.7,-42.34 10.59,-10.58 28.23,-17.64 45.87,-24.7 17.64,-3.53 42.34,-7.05 70.56,-7.05l179.95 0c35.28,0 63.51,3.53 84.68,14.11 21.17,7.06 35.28,24.7 45.87,45.87 10.59,21.17 14.12,49.39 14.12,88.2l0 116.44 3.53 0zm709.19 -268.16l-179.95 0 -134.08 328.14 -7.05 0 -134.08 -328.14 -179.94 0 0 409.29 98.79 0 0 -328.13 14.12 0 141.13 328.13 137.61 0 141.13 -328.13 14.12 0 0 328.13 98.79 0 0 -409.29 -10.58 0zm63.51 409.29l0 -409.29 98.79 0 0 155.25 250.52 0 0 -155.25 98.79 0 0 409.29 -98.79 0 0 -169.36 -250.52 0 0 169.36 -98.79 0 0 0zm606.87 -148.19c0,17.64 3.53,31.76 7.06,42.35 3.53,10.58 10.58,17.63 21.17,21.17 10.59,3.53 24.7,7.05 45.87,7.05l130.55 0c21.17,0 38.81,-3.53 49.4,-7.05 10.59,-3.53 17.64,-10.59 21.17,-21.17 3.53,-10.59 7.05,-24.7 7.05,-42.35l0 -105.85c0,-21.18 -3.53,-35.28 -7.05,-45.87 -3.53,-10.58 -14.12,-17.64 -24.7,-21.17 -10.59,-3.53 -28.23,-7.05 -45.87,-7.05l-127.01 0c-21.18,0 -35.28,3.53 -45.87,7.05 -10.58,3.53 -17.64,10.59 -24.7,21.17 -3.53,10.59 -7.06,24.7 -7.06,45.87l0 105.85 0 0zm381.06 7.06c0,24.7 -3.53,49.39 -7.06,67.03 -3.53,17.64 -14.11,31.76 -24.7,42.34 -10.58,10.59 -24.7,17.64 -45.87,24.7 -17.64,3.53 -42.35,7.05 -70.57,7.05l-179.95 0c-28.22,0 -49.39,-3.53 -70.56,-7.05 -17.64,-3.53 -35.28,-14.12 -45.87,-24.7 -10.58,-10.58 -21.17,-24.7 -24.7,-42.34 -7.06,-17.64 -7.06,-38.81 -7.06,-63.51l0 -123.49c0,-28.22 3.53,-52.93 7.06,-70.57 7.05,-17.63 14.12,-31.75 24.7,-42.34 10.59,-10.58 28.23,-17.64 45.87,-24.7 17.63,-3.53 42.34,-7.05 70.56,-7.05l179.95 0c35.28,0 63.51,3.53 84.68,14.11 21.18,7.06 35.28,24.7 45.87,45.87 10.58,21.17 14.12,49.39 14.12,88.2l0 116.44 3.53 0zm67.03 141.13l0 -409.29 419.88 0 0 77.62 -317.55 0 0 88.21 310.49 0 0 70.57 -310.49 0 0 91.74 317.55 0 0 77.62 -419.88 0 0 3.53zm1040.86 -409.29l116.43 0 -190.53 306.97c-14.12,24.7 -28.23,42.34 -38.81,56.45 -10.59,14.11 -21.17,21.17 -28.23,28.22 -10.58,7.06 -21.17,10.59 -31.75,14.12 -10.59,3.53 -28.23,3.53 -45.87,3.53l-38.81 0 0 -77.62 21.17 0c38.81,0 56.45,-7.05 56.45,-24.7 0,-3.53 -3.53,-10.59 -7.05,-17.64l-187 -285.79 116.43 0 137.6 229.34 119.97 -232.87 0 0zm257.57 0l0 95.26c0,17.64 3.53,35.28 7.05,45.87 3.53,10.58 14.12,17.64 24.7,21.17 10.59,3.53 24.7,7.05 42.34,7.05l67.04 0c24.7,0 42.34,-3.53 56.45,-7.05 14.12,-3.53 24.7,-14.12 35.28,-28.23l0 -134.08 98.79 0 0 409.29 -98.79 0 0 -187c-14.12,10.59 -31.76,17.64 -45.87,21.17 -17.63,3.53 -35.28,7.06 -59.98,7.06l-74.1 0c-52.92,0 -88.2,-10.59 -112.91,-35.28 -24.7,-24.7 -35.28,-59.98 -35.28,-109.38l0 -105.85 95.27 0 0 0zm395.17 409.29l0 -409.29 278.73 0c24.7,0 49.4,3.53 67.04,7.06 17.64,3.53 31.76,14.11 42.34,24.7 10.59,10.59 21.17,24.7 24.7,42.34 7.05,17.64 7.05,38.81 7.05,67.04 0,35.28 -3.53,63.51 -14.12,84.68 -10.58,21.18 -24.7,35.28 -45.87,45.87 -21.17,10.58 -49.4,14.12 -81.16,14.12l-179.94 0 0 119.96 -98.79 0 0 3.53zm95.26 -201.12l162.3 0c17.64,0 28.23,-3.53 38.81,-7.05 10.59,-3.53 14.12,-10.58 21.18,-21.17 3.53,-10.59 7.05,-21.17 7.05,-35.28 0,-21.17 -3.53,-38.81 -14.12,-45.87 -10.58,-10.59 -24.7,-14.12 -49.39,-14.12l-162.31 0 0 123.49 -3.53 0zm381.06 201.12l0 -409.29 416.34 0 0 77.62 -317.55 0 0 88.21 310.5 0 0 70.57 -310.5 0 0 91.74 317.55 0 0 77.62 -416.34 0 0 3.53zm829.15 0l0 -176.41 -49.39 0 -176.42 176.41 -130.55 0 225.81 -215.22 -215.22 -190.53 137.6 0 158.78 151.72 49.39 0 0 -151.72 98.79 0 0 151.72 49.4 0 158.78 -151.72 137.6 0 -215.23 190.53 225.81 215.22 -130.55 0 -176.41 -176.41 -49.4 0 0 176.41 -98.79 0 0 0zm525.72 -81.15c17.64,-17.64 31.76,-35.28 38.81,-56.45 7.06,-21.17 10.59,-45.87 10.59,-74.1l0 -194.06 56.45 0 250.51 0 98.79 0 0 328.13 45.87 0 0 179.95 -88.21 0 0 -98.8 -352.83 0 0 98.8 -88.2 0 0 -179.95 28.22 0 0 -3.53zm359.89 0l0 -246.98 -218.75 0 0 134.08c0,21.17 -3.53,42.34 -7.06,59.98 -3.53,17.64 -14.11,35.28 -24.7,52.93l250.51 0 0 0zm197.59 81.15l0 -409.29 416.34 0 0 77.62 -317.55 0 0 88.21 310.5 0 0 70.57 -310.5 0 0 91.74 317.55 0 0 77.62 -416.34 0 0 3.53zm483.38 0l0 -409.29 98.79 0 0 155.25 250.51 0 0 -155.25 98.8 0 0 409.29 -98.8 0 0 -169.36 -250.51 0 0 169.36 -98.79 0 0 0zm1037.33 0l0 -409.29 -162.31 0 -246.98 328.14 -14.12 0 0 -328.14 -98.79 0 0 409.29 169.36 0 243.45 -328.13 14.12 0 0 328.13 95.26 0 0 0zm77.62 0l0 -409.29 416.34 0 0 77.62 -317.55 0 0 88.21 310.5 0 0 70.57 -310.5 0 0 91.74 317.55 0 0 77.62 -416.34 0 0 3.53z"/>
   <g id="logo">
    <polygon class="fil1" points="2610.96,1125.54 2610.96,1125.54 1531.29,1552.46 1810.03,755.06 "/>
    <polygon class="fil2" points="680.96,1887.65 1527.76,1552.46 1104.37,2596.84 "/>
    <polygon class="fil3" points="1555.99,3665.93 737.42,3380.13 723.3,3376.61 730.36,3362.49 1104.37,2596.84 "/>
    <polygon class="fil4" points="1845.31,4473.91 1555.99,3669.45 1555.99,3665.93 2610.96,4075.21 2610.96,4075.21 "/>
    <polygon class="fil5" points="1845.31,4473.91 2610.96,5221.92 1605.38,5020.8 1605.38,5020.8 "/>
    <polygon class="fil6" points="2610.96,5221.92 2610.96,5221.92 "/>
    <polygon class="fil7" points="1573.63,215.22 2610.96,0 1810.03,755.06 1810.03,755.06 1810.03,755.06 1577.16,215.22 "/>
    <polygon class="fil8" points="187,3584.78 -0,2632.13 723.3,3376.61 "/>
    <polygon class="fil9" points="-0,2632.13 -0,2610.96 183.47,1651.26 680.96,1887.65 "/>
    <polygon class="fil10" points="1810.03,755.06 2610.96,1125.54 2610.96,0 "/>
    <polygon class="fil11" points="2610.96,5221.92 1845.31,4473.91 2610.96,4075.21 "/>
    <polygon class="fil12" points="1845.31,4473.91 751.53,4442.16 723.3,3376.61 1555.99,3665.93 "/>
    <polygon class="fil13" points="1605.38,5020.8 751.53,4442.16 1845.31,4473.91 "/>
    <polygon class="fil14" points="1810.03,755.06 744.47,786.82 680.96,1887.65 1531.29,1552.46 "/>
    <polygon class="fil15" points="744.47,786.82 1577.16,215.22 1810.03,755.06 "/>
    <polygon class="fil16" points="1104.37,2596.84 1527.76,1552.46 2610.96,1125.54 2610.96,4075.21 1555.99,3665.93 "/>
    <polygon class="fil17" points="751.53,4442.16 190.53,3584.78 723.3,3376.61 "/>
    <polygon class="fil18" points="-0,2632.13 680.96,1887.65 1104.37,2596.84 723.3,3376.61 "/>
    <polygon class="fil19" points="183.47,1651.26 744.47,786.82 680.96,1887.65 "/>
    <path class="fil20" d="M2893.22 3239l0 141.14 2572.15 -1220.8c-7.05,-42.34 -17.64,-88.21 -24.7,-130.55l-2547.45 1210.21z"/>
    <path class="fil21" d="M2893.22 2304l0 712.72 2494.53 -1181.99c-63.51,-208.18 -155.24,-402.23 -268.15,-585.71l-2226.37 1054.97z"/>
    <path class="fil22" d="M2893.22 2014.67l0 130.55 2148.75 -1016.16c-21.17,-31.76 -45.87,-67.04 -70.56,-98.79l-2078.18 984.4z"/>
    <path class="fil23" d="M2893.22 1143.18l0 582.17 1901.76 -899.72c-130.55,-141.14 -278.74,-268.16 -441.04,-374l-1460.73 691.55z"/>
    <path class="fil23" d="M2893.22 0l0 765.64 1100.84 -522.19c-331.66,-155.25 -705.67,-243.45 -1100.84,-243.45z"/>
    <path class="fil24" d="M2893.22 3792.95l2610.96 -1238.44c0,17.64 0,35.28 0,56.45 0,1439.56 -1171.4,2610.96 -2610.96,2610.96l0 -1428.97z"/>
   </g>
  </g>
 </g>
</svg>
